<mxfile host="Electron" modified="2024-07-28T02:37:11.251Z" agent="Mozilla/5.0 (Windows NT 10.0; Win64; x64) AppleWebKit/537.36 (KHTML, like Gecko) draw.io/22.1.16 Chrome/120.0.6099.109 Electron/28.1.0 Safari/537.36" etag="rjXuM4Dj0QFtnR7AV1Zv" version="22.1.16" type="device">
  <diagram name="Page-1" id="8ce9d11a-91a2-4d17-14d8-a56ed91bf033">
    <mxGraphModel dx="1167" dy="699" grid="1" gridSize="10" guides="1" tooltips="1" connect="1" arrows="1" fold="1" page="1" pageScale="1" pageWidth="1100" pageHeight="850" background="none" math="0" shadow="0">
      <root>
        <mxCell id="0" />
        <mxCell id="1" parent="0" />
        <mxCell id="Xlg2YE_8T4KPW37Ry9sA-1" value="CONTROLLERS" style="swimlane;startSize=0;spacing=5;fontSize=21;" vertex="1" parent="1">
          <mxGeometry x="290" y="20" width="200" height="1510" as="geometry" />
        </mxCell>
        <mxCell id="Xlg2YE_8T4KPW37Ry9sA-3" value="Almacen" style="triangle;whiteSpace=wrap;html=1;align=center;" vertex="1" parent="Xlg2YE_8T4KPW37Ry9sA-1">
          <mxGeometry x="70" y="10" width="100" height="100" as="geometry" />
        </mxCell>
        <mxCell id="Xlg2YE_8T4KPW37Ry9sA-6" value="Compras" style="triangle;whiteSpace=wrap;html=1;" vertex="1" parent="Xlg2YE_8T4KPW37Ry9sA-1">
          <mxGeometry x="60" y="250" width="100" height="100" as="geometry" />
        </mxCell>
        <mxCell id="Xlg2YE_8T4KPW37Ry9sA-34" value="Categorias&lt;br&gt;y&lt;br&gt;Productos&lt;br&gt;" style="triangle;whiteSpace=wrap;html=1;" vertex="1" parent="Xlg2YE_8T4KPW37Ry9sA-1">
          <mxGeometry x="70" y="440" width="90" height="110" as="geometry" />
        </mxCell>
        <mxCell id="Xlg2YE_8T4KPW37Ry9sA-54" value="GEstion de Normas Tecnicas" style="edgeStyle=orthogonalEdgeStyle;rounded=0;orthogonalLoop=1;jettySize=auto;html=1;exitX=0;exitY=0.25;exitDx=0;exitDy=0;entryX=0;entryY=0.5;entryDx=0;entryDy=0;" edge="1" parent="Xlg2YE_8T4KPW37Ry9sA-1" source="Xlg2YE_8T4KPW37Ry9sA-40" target="Xlg2YE_8T4KPW37Ry9sA-34">
          <mxGeometry relative="1" as="geometry">
            <Array as="points">
              <mxPoint x="-70" y="637" />
              <mxPoint x="-70" y="495" />
            </Array>
          </mxGeometry>
        </mxCell>
        <mxCell id="Xlg2YE_8T4KPW37Ry9sA-40" value="Normas tecnicas" style="triangle;whiteSpace=wrap;html=1;" vertex="1" parent="Xlg2YE_8T4KPW37Ry9sA-1">
          <mxGeometry x="65" y="610" width="90" height="110" as="geometry" />
        </mxCell>
        <mxCell id="Xlg2YE_8T4KPW37Ry9sA-57" value="Plan de productos&lt;br&gt;del dia&lt;br&gt;" style="triangle;whiteSpace=wrap;html=1;" vertex="1" parent="Xlg2YE_8T4KPW37Ry9sA-1">
          <mxGeometry x="60" y="810" width="105" height="110" as="geometry" />
        </mxCell>
        <mxCell id="Xlg2YE_8T4KPW37Ry9sA-7" value="INVENTARIO" style="shape=cylinder3;whiteSpace=wrap;html=1;boundedLbl=1;backgroundOutline=1;size=15;" vertex="1" parent="1">
          <mxGeometry x="1100" width="100" height="140" as="geometry" />
        </mxCell>
        <mxCell id="Xlg2YE_8T4KPW37Ry9sA-9" value="Servicios de Almacen" style="swimlane;startSize=0;fontSize=16;" vertex="1" parent="1">
          <mxGeometry x="550" y="10" width="200" height="380" as="geometry" />
        </mxCell>
        <mxCell id="Xlg2YE_8T4KPW37Ry9sA-20" value="Si" style="edgeStyle=orthogonalEdgeStyle;rounded=0;orthogonalLoop=1;jettySize=auto;html=1;exitX=0.5;exitY=1;exitDx=0;exitDy=0;entryX=0.5;entryY=0;entryDx=0;entryDy=0;fontSize=15;" edge="1" parent="Xlg2YE_8T4KPW37Ry9sA-9" source="Xlg2YE_8T4KPW37Ry9sA-15" target="Xlg2YE_8T4KPW37Ry9sA-19">
          <mxGeometry relative="1" as="geometry" />
        </mxCell>
        <mxCell id="Xlg2YE_8T4KPW37Ry9sA-15" value="Gestion de Almacen" style="rounded=1;whiteSpace=wrap;html=1;" vertex="1" parent="Xlg2YE_8T4KPW37Ry9sA-9">
          <mxGeometry x="40" y="30" width="120" height="60" as="geometry" />
        </mxCell>
        <mxCell id="Xlg2YE_8T4KPW37Ry9sA-14" value="Gestion de compras" style="rounded=1;whiteSpace=wrap;html=1;" vertex="1" parent="Xlg2YE_8T4KPW37Ry9sA-9">
          <mxGeometry x="40" y="270" width="120" height="60" as="geometry" />
        </mxCell>
        <mxCell id="Xlg2YE_8T4KPW37Ry9sA-22" value="Comprobar integridad de compra" style="edgeStyle=orthogonalEdgeStyle;rounded=0;orthogonalLoop=1;jettySize=auto;html=1;exitX=0.5;exitY=1;exitDx=0;exitDy=0;entryX=0.5;entryY=0;entryDx=0;entryDy=0;" edge="1" parent="Xlg2YE_8T4KPW37Ry9sA-9" source="Xlg2YE_8T4KPW37Ry9sA-19" target="Xlg2YE_8T4KPW37Ry9sA-14">
          <mxGeometry relative="1" as="geometry" />
        </mxCell>
        <mxCell id="Xlg2YE_8T4KPW37Ry9sA-19" value="La compra es valida?" style="rhombus;whiteSpace=wrap;html=1;" vertex="1" parent="Xlg2YE_8T4KPW37Ry9sA-9">
          <mxGeometry x="60" y="150" width="80" height="80" as="geometry" />
        </mxCell>
        <mxCell id="Xlg2YE_8T4KPW37Ry9sA-11" value="Consultar estado de inventario" style="edgeStyle=orthogonalEdgeStyle;rounded=0;orthogonalLoop=1;jettySize=auto;html=1;exitX=0.5;exitY=0.5;exitDx=0;exitDy=0;exitPerimeter=0;entryX=0;entryY=0.5;entryDx=0;entryDy=0;" edge="1" parent="1" source="Xlg2YE_8T4KPW37Ry9sA-10" target="Xlg2YE_8T4KPW37Ry9sA-3">
          <mxGeometry relative="1" as="geometry" />
        </mxCell>
        <mxCell id="Xlg2YE_8T4KPW37Ry9sA-26" value="Auditar registros de Compras" style="edgeStyle=orthogonalEdgeStyle;rounded=0;orthogonalLoop=1;jettySize=auto;html=1;exitX=1;exitY=1;exitDx=0;exitDy=0;exitPerimeter=0;entryX=0;entryY=0.25;entryDx=0;entryDy=0;" edge="1" parent="1" source="Xlg2YE_8T4KPW37Ry9sA-10" target="Xlg2YE_8T4KPW37Ry9sA-6">
          <mxGeometry relative="1" as="geometry">
            <Array as="points">
              <mxPoint x="160" y="155" />
              <mxPoint x="160" y="285" />
            </Array>
          </mxGeometry>
        </mxCell>
        <mxCell id="Xlg2YE_8T4KPW37Ry9sA-30" value="Auditar Inventario" style="edgeStyle=orthogonalEdgeStyle;rounded=0;orthogonalLoop=1;jettySize=auto;html=1;exitX=1;exitY=0.3333333333333333;exitDx=0;exitDy=0;exitPerimeter=0;entryX=0;entryY=0.25;entryDx=0;entryDy=0;" edge="1" parent="1" source="Xlg2YE_8T4KPW37Ry9sA-10" target="Xlg2YE_8T4KPW37Ry9sA-3">
          <mxGeometry relative="1" as="geometry" />
        </mxCell>
        <mxCell id="Xlg2YE_8T4KPW37Ry9sA-35" style="edgeStyle=orthogonalEdgeStyle;rounded=0;orthogonalLoop=1;jettySize=auto;html=1;exitX=0.75;exitY=0.1;exitDx=0;exitDy=0;exitPerimeter=0;entryX=0;entryY=0.5;entryDx=0;entryDy=0;" edge="1" parent="1" source="Xlg2YE_8T4KPW37Ry9sA-10" target="Xlg2YE_8T4KPW37Ry9sA-34">
          <mxGeometry relative="1" as="geometry" />
        </mxCell>
        <mxCell id="Xlg2YE_8T4KPW37Ry9sA-10" value="Administrador" style="shape=umlActor;verticalLabelPosition=bottom;verticalAlign=top;html=1;outlineConnect=0;" vertex="1" parent="1">
          <mxGeometry x="10" y="15" width="60" height="110" as="geometry" />
        </mxCell>
        <mxCell id="Xlg2YE_8T4KPW37Ry9sA-13" value="Agregar compra de ingredientes" style="edgeStyle=orthogonalEdgeStyle;rounded=0;orthogonalLoop=1;jettySize=auto;html=1;exitX=0.5;exitY=0.5;exitDx=0;exitDy=0;exitPerimeter=0;entryX=0;entryY=0.5;entryDx=0;entryDy=0;" edge="1" parent="1" source="Xlg2YE_8T4KPW37Ry9sA-12" target="Xlg2YE_8T4KPW37Ry9sA-6">
          <mxGeometry relative="1" as="geometry" />
        </mxCell>
        <mxCell id="Xlg2YE_8T4KPW37Ry9sA-27" style="edgeStyle=orthogonalEdgeStyle;rounded=0;orthogonalLoop=1;jettySize=auto;html=1;exitX=1;exitY=0.3333333333333333;exitDx=0;exitDy=0;exitPerimeter=0;entryX=0;entryY=0.25;entryDx=0;entryDy=0;" edge="1" parent="1" source="Xlg2YE_8T4KPW37Ry9sA-12" target="Xlg2YE_8T4KPW37Ry9sA-6">
          <mxGeometry relative="1" as="geometry">
            <Array as="points">
              <mxPoint x="80" y="285" />
            </Array>
          </mxGeometry>
        </mxCell>
        <mxCell id="Xlg2YE_8T4KPW37Ry9sA-12" value="Comprador" style="shape=umlActor;verticalLabelPosition=bottom;verticalAlign=top;html=1;outlineConnect=0;" vertex="1" parent="1">
          <mxGeometry x="10" y="255" width="70" height="110" as="geometry" />
        </mxCell>
        <mxCell id="Xlg2YE_8T4KPW37Ry9sA-16" value="Registros de compras" style="shape=cylinder3;whiteSpace=wrap;html=1;boundedLbl=1;backgroundOutline=1;size=15;" vertex="1" parent="1">
          <mxGeometry x="1100" y="240" width="100" height="140" as="geometry" />
        </mxCell>
        <mxCell id="Xlg2YE_8T4KPW37Ry9sA-21" value="Escribir regitro de compra, sea valida o no" style="edgeStyle=orthogonalEdgeStyle;rounded=0;orthogonalLoop=1;jettySize=auto;html=1;exitX=1;exitY=0.5;exitDx=0;exitDy=0;entryX=0;entryY=0.5;entryDx=0;entryDy=0;entryPerimeter=0;fontSize=15;" edge="1" parent="1" source="Xlg2YE_8T4KPW37Ry9sA-14" target="Xlg2YE_8T4KPW37Ry9sA-16">
          <mxGeometry relative="1" as="geometry" />
        </mxCell>
        <mxCell id="Xlg2YE_8T4KPW37Ry9sA-23" style="edgeStyle=orthogonalEdgeStyle;rounded=0;orthogonalLoop=1;jettySize=auto;html=1;exitX=1;exitY=0.5;exitDx=0;exitDy=0;entryX=0;entryY=0.5;entryDx=0;entryDy=0;" edge="1" parent="1" source="Xlg2YE_8T4KPW37Ry9sA-3" target="Xlg2YE_8T4KPW37Ry9sA-15">
          <mxGeometry relative="1" as="geometry" />
        </mxCell>
        <mxCell id="Xlg2YE_8T4KPW37Ry9sA-24" style="edgeStyle=orthogonalEdgeStyle;rounded=0;orthogonalLoop=1;jettySize=auto;html=1;exitX=1;exitY=0.5;exitDx=0;exitDy=0;entryX=0;entryY=0.5;entryDx=0;entryDy=0;" edge="1" parent="1" source="Xlg2YE_8T4KPW37Ry9sA-6" target="Xlg2YE_8T4KPW37Ry9sA-14">
          <mxGeometry relative="1" as="geometry" />
        </mxCell>
        <mxCell id="Xlg2YE_8T4KPW37Ry9sA-25" value="Consultar registros de compras" style="edgeStyle=orthogonalEdgeStyle;rounded=0;orthogonalLoop=1;jettySize=auto;html=1;exitX=1;exitY=0.25;exitDx=0;exitDy=0;entryX=0;entryY=0;entryDx=0;entryDy=42.5;entryPerimeter=0;fontSize=14;" edge="1" parent="1" source="Xlg2YE_8T4KPW37Ry9sA-14" target="Xlg2YE_8T4KPW37Ry9sA-16">
          <mxGeometry relative="1" as="geometry" />
        </mxCell>
        <mxCell id="Xlg2YE_8T4KPW37Ry9sA-28" value="Auditoria de inventario" style="edgeStyle=orthogonalEdgeStyle;rounded=0;orthogonalLoop=1;jettySize=auto;html=1;exitX=1;exitY=0.5;exitDx=0;exitDy=0;entryX=0;entryY=0.5;entryDx=0;entryDy=0;entryPerimeter=0;fontSize=14;" edge="1" parent="1" source="Xlg2YE_8T4KPW37Ry9sA-15" target="Xlg2YE_8T4KPW37Ry9sA-7">
          <mxGeometry relative="1" as="geometry" />
        </mxCell>
        <mxCell id="Xlg2YE_8T4KPW37Ry9sA-29" value="Insertar, eliminar y modificar ingredientes en inventario" style="edgeStyle=orthogonalEdgeStyle;rounded=0;orthogonalLoop=1;jettySize=auto;html=1;exitX=1;exitY=0.25;exitDx=0;exitDy=0;entryX=0;entryY=0;entryDx=0;entryDy=42.5;entryPerimeter=0;fontSize=13;" edge="1" parent="1" source="Xlg2YE_8T4KPW37Ry9sA-15" target="Xlg2YE_8T4KPW37Ry9sA-7">
          <mxGeometry relative="1" as="geometry" />
        </mxCell>
        <mxCell id="Xlg2YE_8T4KPW37Ry9sA-31" value="Administra cion de Productos" style="swimlane;startSize=0;fontSize=14;" vertex="1" parent="1">
          <mxGeometry x="550" y="450" width="200" height="350" as="geometry" />
        </mxCell>
        <mxCell id="Xlg2YE_8T4KPW37Ry9sA-48" style="edgeStyle=orthogonalEdgeStyle;rounded=0;orthogonalLoop=1;jettySize=auto;html=1;exitX=0.5;exitY=1;exitDx=0;exitDy=0;entryX=0.5;entryY=0;entryDx=0;entryDy=0;" edge="1" parent="Xlg2YE_8T4KPW37Ry9sA-31" source="Xlg2YE_8T4KPW37Ry9sA-39" target="Xlg2YE_8T4KPW37Ry9sA-44">
          <mxGeometry relative="1" as="geometry" />
        </mxCell>
        <mxCell id="Xlg2YE_8T4KPW37Ry9sA-39" value="Gestion de Productos" style="rounded=1;whiteSpace=wrap;html=1;" vertex="1" parent="Xlg2YE_8T4KPW37Ry9sA-31">
          <mxGeometry x="40" y="30" width="120" height="60" as="geometry" />
        </mxCell>
        <mxCell id="Xlg2YE_8T4KPW37Ry9sA-43" value="Gestion de normas tecnicas" style="rounded=1;whiteSpace=wrap;html=1;" vertex="1" parent="Xlg2YE_8T4KPW37Ry9sA-31">
          <mxGeometry x="40" y="220" width="120" height="60" as="geometry" />
        </mxCell>
        <mxCell id="Xlg2YE_8T4KPW37Ry9sA-46" value="Asociar Producto a Norma Tecnica" style="edgeStyle=orthogonalEdgeStyle;rounded=0;orthogonalLoop=1;jettySize=auto;html=1;exitX=0.5;exitY=1;exitDx=0;exitDy=0;entryX=0.5;entryY=0;entryDx=0;entryDy=0;" edge="1" parent="Xlg2YE_8T4KPW37Ry9sA-31" source="Xlg2YE_8T4KPW37Ry9sA-44" target="Xlg2YE_8T4KPW37Ry9sA-43">
          <mxGeometry relative="1" as="geometry" />
        </mxCell>
        <mxCell id="Xlg2YE_8T4KPW37Ry9sA-44" value="Existe el producto?" style="rhombus;whiteSpace=wrap;html=1;" vertex="1" parent="Xlg2YE_8T4KPW37Ry9sA-31">
          <mxGeometry x="60" y="120" width="80" height="60" as="geometry" />
        </mxCell>
        <mxCell id="Xlg2YE_8T4KPW37Ry9sA-37" value="Registro de&amp;nbsp;&lt;br&gt;categorias y&amp;nbsp;&lt;br&gt;sus productos" style="shape=cylinder3;whiteSpace=wrap;html=1;boundedLbl=1;backgroundOutline=1;size=15;" vertex="1" parent="1">
          <mxGeometry x="1100" y="430" width="100" height="160" as="geometry" />
        </mxCell>
        <mxCell id="Xlg2YE_8T4KPW37Ry9sA-38" style="edgeStyle=orthogonalEdgeStyle;rounded=0;orthogonalLoop=1;jettySize=auto;html=1;exitX=0.5;exitY=1;exitDx=0;exitDy=0;" edge="1" parent="1" source="Xlg2YE_8T4KPW37Ry9sA-1" target="Xlg2YE_8T4KPW37Ry9sA-1">
          <mxGeometry relative="1" as="geometry" />
        </mxCell>
        <mxCell id="Xlg2YE_8T4KPW37Ry9sA-41" style="edgeStyle=orthogonalEdgeStyle;rounded=0;orthogonalLoop=1;jettySize=auto;html=1;exitX=1;exitY=0.5;exitDx=0;exitDy=0;entryX=0;entryY=0.5;entryDx=0;entryDy=0;" edge="1" parent="1" source="Xlg2YE_8T4KPW37Ry9sA-34" target="Xlg2YE_8T4KPW37Ry9sA-39">
          <mxGeometry relative="1" as="geometry" />
        </mxCell>
        <mxCell id="Xlg2YE_8T4KPW37Ry9sA-42" value="Insercion, modificacion y eliminacion de productos" style="edgeStyle=orthogonalEdgeStyle;rounded=0;orthogonalLoop=1;jettySize=auto;html=1;exitX=1;exitY=0.5;exitDx=0;exitDy=0;entryX=0;entryY=0;entryDx=0;entryDy=47.5;entryPerimeter=0;" edge="1" parent="1" source="Xlg2YE_8T4KPW37Ry9sA-39" target="Xlg2YE_8T4KPW37Ry9sA-37">
          <mxGeometry relative="1" as="geometry" />
        </mxCell>
        <mxCell id="Xlg2YE_8T4KPW37Ry9sA-47" value="Refistro de Cartas de Normas Tecnicas" style="shape=cylinder3;whiteSpace=wrap;html=1;boundedLbl=1;backgroundOutline=1;size=15;" vertex="1" parent="1">
          <mxGeometry x="1100" y="630" width="100" height="150" as="geometry" />
        </mxCell>
        <mxCell id="Xlg2YE_8T4KPW37Ry9sA-49" value="Si" style="edgeStyle=orthogonalEdgeStyle;rounded=0;orthogonalLoop=1;jettySize=auto;html=1;exitX=1;exitY=0.5;exitDx=0;exitDy=0;entryX=0;entryY=0;entryDx=0;entryDy=45;entryPerimeter=0;" edge="1" parent="1" source="Xlg2YE_8T4KPW37Ry9sA-44" target="Xlg2YE_8T4KPW37Ry9sA-47">
          <mxGeometry relative="1" as="geometry" />
        </mxCell>
        <mxCell id="Xlg2YE_8T4KPW37Ry9sA-50" value="Informar al gestor de productos" style="edgeStyle=orthogonalEdgeStyle;rounded=0;orthogonalLoop=1;jettySize=auto;html=1;exitX=0;exitY=0.5;exitDx=0;exitDy=0;entryX=0.5;entryY=0;entryDx=0;entryDy=0;" edge="1" parent="1" source="Xlg2YE_8T4KPW37Ry9sA-44" target="Xlg2YE_8T4KPW37Ry9sA-40">
          <mxGeometry relative="1" as="geometry">
            <Array as="points">
              <mxPoint x="470" y="600" />
              <mxPoint x="470" y="647" />
            </Array>
          </mxGeometry>
        </mxCell>
        <mxCell id="Xlg2YE_8T4KPW37Ry9sA-53" style="edgeStyle=orthogonalEdgeStyle;rounded=0;orthogonalLoop=1;jettySize=auto;html=1;exitX=0;exitY=0.5;exitDx=0;exitDy=0;entryX=1;entryY=0.5;entryDx=0;entryDy=0;" edge="1" parent="1" source="Xlg2YE_8T4KPW37Ry9sA-43" target="Xlg2YE_8T4KPW37Ry9sA-40">
          <mxGeometry relative="1" as="geometry" />
        </mxCell>
        <mxCell id="Xlg2YE_8T4KPW37Ry9sA-55" value="Relacion 1 a 1" style="endArrow=classic;startArrow=classic;html=1;rounded=0;entryX=0.5;entryY=1;entryDx=0;entryDy=0;entryPerimeter=0;" edge="1" parent="1" target="Xlg2YE_8T4KPW37Ry9sA-37">
          <mxGeometry width="50" height="50" relative="1" as="geometry">
            <mxPoint x="1150" y="630" as="sourcePoint" />
            <mxPoint x="1200" y="580" as="targetPoint" />
            <Array as="points" />
          </mxGeometry>
        </mxCell>
        <mxCell id="Xlg2YE_8T4KPW37Ry9sA-59" value="Logica de extraciion de Ingredientes" style="swimlane;startSize=0;fontSize=15;" vertex="1" parent="1">
          <mxGeometry x="550" y="830" width="850" height="170" as="geometry" />
        </mxCell>
        <mxCell id="Xlg2YE_8T4KPW37Ry9sA-62" style="edgeStyle=orthogonalEdgeStyle;rounded=0;orthogonalLoop=1;jettySize=auto;html=1;exitX=1;exitY=0.5;exitDx=0;exitDy=0;entryX=0;entryY=0.5;entryDx=0;entryDy=0;" edge="1" parent="Xlg2YE_8T4KPW37Ry9sA-59" source="Xlg2YE_8T4KPW37Ry9sA-60" target="Xlg2YE_8T4KPW37Ry9sA-61">
          <mxGeometry relative="1" as="geometry" />
        </mxCell>
        <mxCell id="Xlg2YE_8T4KPW37Ry9sA-60" value="Interpretacion de Plan" style="rounded=1;whiteSpace=wrap;html=1;" vertex="1" parent="Xlg2YE_8T4KPW37Ry9sA-59">
          <mxGeometry x="30" y="20" width="150" height="130" as="geometry" />
        </mxCell>
        <mxCell id="Xlg2YE_8T4KPW37Ry9sA-66" value="Si" style="edgeStyle=orthogonalEdgeStyle;rounded=0;orthogonalLoop=1;jettySize=auto;html=1;exitX=1;exitY=0.5;exitDx=0;exitDy=0;entryX=0;entryY=0.5;entryDx=0;entryDy=0;fontSize=16;" edge="1" parent="Xlg2YE_8T4KPW37Ry9sA-59" source="Xlg2YE_8T4KPW37Ry9sA-61" target="Xlg2YE_8T4KPW37Ry9sA-65">
          <mxGeometry relative="1" as="geometry" />
        </mxCell>
        <mxCell id="Xlg2YE_8T4KPW37Ry9sA-61" value="Verificar Cartas de normas Tecnicas" style="rhombus;whiteSpace=wrap;html=1;" vertex="1" parent="Xlg2YE_8T4KPW37Ry9sA-59">
          <mxGeometry x="240" y="45" width="80" height="80" as="geometry" />
        </mxCell>
        <mxCell id="Xlg2YE_8T4KPW37Ry9sA-69" style="edgeStyle=orthogonalEdgeStyle;rounded=0;orthogonalLoop=1;jettySize=auto;html=1;exitX=1;exitY=0.5;exitDx=0;exitDy=0;entryX=0;entryY=0.5;entryDx=0;entryDy=0;" edge="1" parent="Xlg2YE_8T4KPW37Ry9sA-59" source="Xlg2YE_8T4KPW37Ry9sA-65" target="Xlg2YE_8T4KPW37Ry9sA-68">
          <mxGeometry relative="1" as="geometry" />
        </mxCell>
        <mxCell id="Xlg2YE_8T4KPW37Ry9sA-65" value="Traduccion de Platos a Ingredientes" style="rounded=1;whiteSpace=wrap;html=1;" vertex="1" parent="Xlg2YE_8T4KPW37Ry9sA-59">
          <mxGeometry x="370" y="20" width="120" height="120" as="geometry" />
        </mxCell>
        <mxCell id="Xlg2YE_8T4KPW37Ry9sA-68" value="Verificar Si existen los ingredientes suficientes" style="rhombus;whiteSpace=wrap;html=1;" vertex="1" parent="Xlg2YE_8T4KPW37Ry9sA-59">
          <mxGeometry x="560" y="40" width="80" height="80" as="geometry" />
        </mxCell>
        <mxCell id="Xlg2YE_8T4KPW37Ry9sA-63" style="edgeStyle=orthogonalEdgeStyle;rounded=0;orthogonalLoop=1;jettySize=auto;html=1;exitX=0.5;exitY=0;exitDx=0;exitDy=0;entryX=1;entryY=0.5;entryDx=0;entryDy=0;" edge="1" parent="1" source="Xlg2YE_8T4KPW37Ry9sA-61" target="Xlg2YE_8T4KPW37Ry9sA-43">
          <mxGeometry relative="1" as="geometry" />
        </mxCell>
        <mxCell id="Xlg2YE_8T4KPW37Ry9sA-64" value="Not" style="edgeStyle=orthogonalEdgeStyle;rounded=0;orthogonalLoop=1;jettySize=auto;html=1;exitX=0.5;exitY=1;exitDx=0;exitDy=0;entryX=0.5;entryY=1;entryDx=0;entryDy=0;fontSize=16;" edge="1" parent="1" source="Xlg2YE_8T4KPW37Ry9sA-61" target="Xlg2YE_8T4KPW37Ry9sA-57">
          <mxGeometry relative="1" as="geometry">
            <Array as="points">
              <mxPoint x="830" y="1020" />
              <mxPoint x="510" y="1020" />
              <mxPoint x="510" y="913" />
            </Array>
          </mxGeometry>
        </mxCell>
        <mxCell id="Xlg2YE_8T4KPW37Ry9sA-70" style="edgeStyle=orthogonalEdgeStyle;rounded=0;orthogonalLoop=1;jettySize=auto;html=1;exitX=0.5;exitY=0;exitDx=0;exitDy=0;entryX=1;entryY=0.75;entryDx=0;entryDy=0;" edge="1" parent="1" source="Xlg2YE_8T4KPW37Ry9sA-68" target="Xlg2YE_8T4KPW37Ry9sA-15">
          <mxGeometry relative="1" as="geometry">
            <Array as="points">
              <mxPoint x="1260" y="870" />
              <mxPoint x="1260" y="170" />
              <mxPoint x="710" y="170" />
            </Array>
          </mxGeometry>
        </mxCell>
        <mxCell id="Xlg2YE_8T4KPW37Ry9sA-71" value="Registro de Planes del Dia" style="shape=cylinder3;whiteSpace=wrap;html=1;boundedLbl=1;backgroundOutline=1;size=15;" vertex="1" parent="1">
          <mxGeometry x="1110" y="1080" width="110" height="140" as="geometry" />
        </mxCell>
      </root>
    </mxGraphModel>
  </diagram>
</mxfile>
